<svg width="156" height="192" viewBox="0 0 156 192" fill="none" xmlns="http://www.w3.org/2000/svg">
<g id="Group">
<path id="Vector" d="M127.73 81.6243C127.73 81.6243 115.954 102.517 103.993 116.939C99.2339 122.679 94.4448 127.393 90.3576 129.359C86.3568 131.283 82.9699 134.272 80.1672 137.585C72.9086 146.161 69.5588 156.899 69.5588 156.899L38.9724 115.859C38.9724 115.859 40.0161 75.7418 43.6886 69.0313C49.0411 59.2523 51.6266 39.4939 53.6829 35.5603C55.2084 32.6422 59.5646 17.5688 59.9824 16.4612C60.1638 15.9838 61.6134 15.252 63.4957 15.2533C65.0064 15.2533 67.571 16.5482 68.2178 19.2093C71.4888 32.6594 67.5517 41.5311 67.5963 41.9254C68.7501 52.2622 65.2814 59.9353 67.7138 61.9673C67.8046 62.0425 67.9725 62.0069 68.2105 61.8723C72.427 59.4711 98.5977 25.6323 101.821 24.9017C105.226 24.1317 127.73 81.6243 127.73 81.6243Z" fill="#EFA26F"/>
<path id="Vector_2" d="M78.7606 148.776C78.7606 148.776 78.3442 167.014 77.1516 191.577H0C17.6355 158.223 32.9673 130.15 32.9673 130.15C32.9673 130.15 76.8965 131.34 78.7606 148.776Z" fill="#F99746"/>
<path id="Vector_3" d="M154.472 10.9166L145 23.2316L135.705 35.3171C135.139 35.9236 134.483 36.1343 133.773 36.0737C131.543 35.8859 128.783 33.0328 126.632 31.4533L126.414 31.2944C123.578 29.2137 123.178 25.4538 125.524 22.9399L139.73 7.7097V7.70827L143.943 3.1917C146.289 0.676415 150.529 0.321209 153.363 2.40189L153.581 2.56069C156.417 4.64148 156.818 8.40136 154.472 10.9166Z" fill="#FFB27D"/>
<path id="Vector_4" d="M145 23.2317L135.706 35.3171C135.139 35.9236 134.483 36.1343 133.773 36.0737L139.73 7.70972C139.743 7.86862 140.756 20.5951 145 23.2317Z" fill="#EFA26F"/>
<path id="Vector_5" d="M103.993 116.939C99.2341 122.679 94.445 127.393 90.3578 129.359C86.357 131.283 82.9701 134.272 80.1674 137.584C76.9437 136.252 73.269 134.688 69.6772 133.14C65.3034 131.255 65.1356 125.746 69.4196 123.705C69.4614 123.685 69.5025 123.665 69.5427 123.645C73.557 121.607 77.6705 114.414 77.6705 114.414L103.993 116.939Z" fill="#D38254"/>
<path id="Vector_6" d="M59.7695 17.0852L57.2913 25.9588C57.2913 25.9588 59.4577 26.7449 60.8491 26.1346C62.2404 25.5242 63.3756 17.5629 59.7695 17.0852Z" fill="#FFC197"/>
<g id="Group_2">
<path id="Vector_7" d="M131.039 121.132H77.7485C72.5067 121.132 68.218 117.328 68.218 112.679V8.79143C68.218 4.14249 72.5068 0.338745 77.7485 0.338745H131.039C136.281 0.338745 140.57 4.14249 140.57 8.79143V112.679C140.57 117.328 136.281 121.132 131.039 121.132Z" fill="#2B478B"/>
<g id="Group_3">
<path id="Vector_8" d="M136.984 9.59148V111.071C136.984 114.514 133.831 117.33 129.979 117.33H78.8089C74.9568 117.33 71.8047 114.514 71.8047 111.071V9.59148C71.8047 6.14875 74.9568 3.33276 78.8089 3.33276H129.979C133.831 3.33265 136.984 6.14864 136.984 9.59148Z" fill="white"/>
</g>
<path id="Vector_9" d="M115.088 7.10664H93.7013C91.9593 7.10664 90.5339 5.84252 90.5339 4.29744V3.85582C90.5339 2.31074 91.9593 1.04663 93.7013 1.04663H115.088C116.83 1.04663 118.255 2.31074 118.255 3.85582V4.29744C118.255 5.84241 116.83 7.10664 115.088 7.10664Z" fill="#2B478B"/>
</g>
<g id="Group_4">
<path id="Vector_10" d="M149.757 57.4225L148.344 57.8985L138.846 61.0998C138.624 61.1748 138.398 61.2388 138.173 61.2889C135.028 62.0139 131.681 60.527 130.502 57.7745L130.363 57.451C129.099 54.5011 130.786 51.1702 134.112 50.0493L142.967 47.0653L143.61 46.8481L145.023 46.372C148.349 45.2511 152.103 46.7473 153.367 49.6973L153.506 50.0208C154.77 52.9707 153.083 56.3017 149.757 57.4225Z" fill="#FFB27D"/>
<path id="Vector_11" d="M142.043 57.6157C140.458 58.1485 137.588 59.0939 136.054 59.2894C135.62 59.3449 134.819 59.1354 134.073 58.4102C133.625 57.976 133.196 57.357 132.878 56.4993C132.729 56.0958 132.606 55.694 132.554 55.2797C132.494 54.7947 132.51 54.3096 132.606 53.8292C132.692 53.3965 133.026 53.0023 133.512 52.7945C133.514 52.7929 133.517 52.7929 133.519 52.7914C135.151 52.1 137.351 51.2577 139.28 50.788C140.613 50.4616 141.962 50.9836 142.384 52.0184L142.583 52.5019L143.602 54.9779C144.024 56.0067 143.339 57.1831 142.043 57.6157Z" fill="#FFD3B6"/>
<path id="Vector_12" d="M142.043 57.6158C140.458 58.1486 137.588 59.094 136.054 59.2895C135.62 59.345 134.819 59.1355 134.073 58.4103C133.993 58.2456 133.92 58.0716 133.85 57.8852C133.701 57.4818 133.578 57.08 133.526 56.6657C133.467 56.1806 133.482 55.6956 133.578 55.2151C133.665 54.7825 133.998 54.3882 134.484 54.1803C134.486 54.1788 134.489 54.1788 134.491 54.1772C136.123 53.4859 138.323 52.6436 140.252 52.174C141.106 51.9645 141.965 52.1031 142.583 52.5019L143.602 54.9779C144.024 56.0068 143.339 57.1832 142.043 57.6158Z" fill="#FFC197"/>
</g>
<g id="Group_5">
<path id="Vector_13" d="M145.447 69.2659L138.122 71.0344C135.896 71.5718 133.58 70.3965 132.974 68.4225L132.748 67.6872C132.142 65.7132 133.467 63.6586 135.693 63.1211L143.017 61.3525C145.243 60.8152 147.56 61.9904 148.166 63.9644L148.392 64.6997C148.998 66.6737 147.672 68.7285 145.447 69.2659Z" fill="#FFB27D"/>
<path id="Vector_14" d="M141.486 68.9472C140.141 69.266 137.708 69.8281 136.434 69.8896C135.97 69.9127 135.041 69.5646 134.436 68.4838C134.286 68.222 134.16 67.9187 134.06 67.5676C133.972 67.249 133.904 66.9332 133.897 66.6129C133.889 66.2356 133.943 65.8645 134.06 65.5012C134.166 65.1732 134.474 64.8898 134.889 64.759C134.892 64.7575 134.894 64.7575 134.896 64.7559C136.292 64.3186 138.167 63.7966 139.788 63.5457C140.908 63.3716 141.97 63.849 142.233 64.6681L142.422 65.2533L142.986 67.0101C143.246 67.8232 142.585 68.6885 141.486 68.9472Z" fill="#FFD3B6"/>
<path id="Vector_15" d="M141.486 68.9471C140.141 69.2659 137.708 69.828 136.434 69.8895C135.97 69.9126 135.041 69.5646 134.436 68.4837C134.354 68.1865 134.295 67.8893 134.288 67.5875C134.279 67.2118 134.333 66.8392 134.451 66.4757C134.557 66.1492 134.864 65.8644 135.279 65.7335C135.283 65.732 135.285 65.732 135.286 65.7304C136.682 65.2932 138.557 64.7711 140.179 64.5217C141.106 64.3769 141.995 64.6803 142.422 65.2531L142.986 67.0099C143.247 67.8231 142.585 68.6884 141.486 68.9471Z" fill="#FFC197"/>
</g>
<path id="Vector_16" d="M25.4563 143.987C25.4563 143.987 40.5328 156.794 50.6963 161.739L58.3914 156.898V164.039C58.3914 164.039 73.5252 166.412 78.2987 164.039V144.565L35.7921 125.667L25.4563 143.987Z" fill="#ED7D2B"/>
<path id="Vector_17" d="M38.973 114.414C38.973 114.414 29.3987 127.117 19.8833 140.699C19.8833 140.699 39.9366 152.934 50.8086 156.523L65.0692 142.038L63.0335 159.474C63.0335 159.474 75.6538 163.554 81.5091 162.489C81.5091 162.489 81.1393 146.671 81.1434 136.307C81.1434 136.307 46.4501 127.683 38.973 114.414Z" fill="#F3F8FF"/>
<path id="Vector_18" d="M41.328 146.651C41.3401 145.488 42.4127 144.555 43.7236 144.565C45.0345 144.576 46.0874 145.527 46.0753 146.69C46.0632 147.853 44.9907 148.786 43.6797 148.776C42.3688 148.765 41.3159 147.814 41.328 146.651Z" fill="#F99746"/>
<g id="Group_6">
<path id="Vector_19" d="M149.526 44.9724C149.474 44.9894 149.422 45.0047 149.368 45.0201L139.765 47.2066C135.543 48.169 131.176 46.1426 130.062 42.7042L129.49 40.9426C128.419 37.6412 130.721 34.1891 134.645 33.0696L137.815 32.3475L144.248 30.8831C148.47 29.9208 152.837 31.9472 153.951 35.3855L154.523 37.1471C155.578 40.4038 153.352 43.8052 149.526 44.9724Z" fill="#FFB27D"/>
<path id="Vector_20" d="M145.125 42.595L140.46 44.4596C140.453 44.4612 140.444 44.4627 140.431 44.4658C140.243 44.5104 140.054 44.5443 139.866 44.5689C139.788 44.5797 139.709 44.5874 139.63 44.5951C139.597 44.5981 139.564 44.5981 139.531 44.5966C139.017 44.5811 138.665 44.0977 138.887 43.6665C139.328 42.815 139.448 41.8295 139.151 40.861L139.04 40.5007C139.04 40.4976 139.038 40.493 139.037 40.4898L138.676 39.315C138.389 38.3788 137.78 37.595 136.984 37.0284C136.889 36.9591 136.79 36.8944 136.689 36.8328C135.767 36.2662 136.002 34.9835 137.082 34.7171C137.092 34.714 137.101 34.7125 137.111 34.7094L142.231 34.0227C143.497 33.7178 144.715 34.5816 145.061 35.7042L145.472 37.0423L146.348 39.8956C146.691 41.0198 146.391 42.2901 145.125 42.595Z" fill="#FFD3B6"/>
<path id="Vector_21" d="M145.125 42.595L140.46 44.4596C140.453 44.4612 140.444 44.4627 140.431 44.4658C140.321 44.4842 139.979 44.5351 139.531 44.5966C139.017 44.5812 138.665 44.0977 138.887 43.6665C139.328 42.815 139.448 41.8295 139.151 40.861L139.04 40.5007C139.04 40.4976 139.038 40.493 139.036 40.4899L138.675 39.315C138.389 38.3788 137.78 37.595 136.984 37.0284C137.149 36.8143 137.396 36.645 137.719 36.5648C137.727 36.5618 137.738 36.5602 137.748 36.5571L142.868 35.8703C143.934 35.6131 144.965 36.186 145.472 37.0422L146.347 39.8955C146.691 41.0198 146.391 42.2901 145.125 42.595Z" fill="#FFC197"/>
</g>
<path id="Vector_22" d="M68.2177 89.2724C68.2177 89.2724 66.1228 73.0532 64.1899 69.8911C62.2571 66.7277 60.6216 60.3943 63.5951 55.6881C66.5687 50.9806 67.5961 41.9254 67.5961 41.9254C68.7499 52.2623 65.2811 59.9353 67.7136 61.9673C67.8043 62.0426 67.9723 62.0069 68.2103 61.8724L68.2177 89.2724Z" fill="#D38254"/>
</g>
</svg>
