<svg width="19" height="20" viewBox="0 0 19 20" fill="none" xmlns="http://www.w3.org/2000/svg">
<g id="next-arrows_svgrepo.com" clip-path="url(#clip0_26_787)">
<g id="Group">
<g id="Group_2">
<g id="Group_3">
<path id="Vector" d="M0.904762 9.41948H0.369291C0.138567 9.41948 -0.05 9.60805 -0.05 9.83877C-0.05 10.0695 0.138567 10.2581 0.369291 10.2581H0.904762C1.13549 10.2581 1.32405 10.0695 1.32405 9.83877C1.32405 9.60805 1.13549 9.41948 0.904762 9.41948Z" fill="#18C75A" stroke="#18C75A" stroke-width="0.1"/>
<path id="Vector_2" d="M18.9246 9.54491L11.7234 2.34374C11.5561 2.1765 11.3029 2.1765 11.1357 2.34374C10.9684 2.51098 10.9684 2.76422 11.1357 2.93146L17.6237 9.41948H2.56656C2.33583 9.41948 2.14727 9.60804 2.14727 9.83877C2.14727 10.0695 2.33583 10.2581 2.56656 10.2581H17.6237L11.1357 16.7461C10.9684 16.9133 10.9684 17.1666 11.1357 17.3338C11.2186 17.4167 11.3235 17.4592 11.4295 17.4592C11.5355 17.4592 11.6405 17.4167 11.7234 17.3338L18.9246 10.1326C19.0918 9.96538 19.0918 9.71215 18.9246 9.54491Z" fill="#18C75A" stroke="#18C75A" stroke-width="0.1"/>
</g>
</g>
</g>
</g>
<defs>
<clipPath id="clip0_26_787">
<rect width="19" height="19" fill="white" transform="translate(0 0.338867)"/>
</clipPath>
</defs>
</svg>
