<svg width="210" height="154" viewBox="0 0 210 154" fill="none" xmlns="http://www.w3.org/2000/svg">
<g id="OBJECTS">
<g id="Group">
<path id="Vector" d="M188.311 139.665C188.311 139.665 214.406 113.864 198.323 86.9502C182.24 60.036 155.434 68.5668 130.091 59.5768C104.748 50.5868 79.2184 21.5152 54.973 32.2809C25.1722 45.5138 62.7197 73.0749 19.5808 90.5074C-10.1967 102.541 14.1723 139.793 14.1723 139.793L188.311 139.665Z" fill="#FDFBFF"/>
</g>
<g id="Group_2">
<g id="Group_3">
<g id="Group_4">
<g id="Group_5">
<path id="Vector_2" d="M176.134 134.553V139.671C176.134 139.724 176.131 139.776 176.118 139.828C176.111 139.884 176.094 139.937 176.078 139.989C176.058 140.037 176.038 140.089 176.01 140.133C175.957 140.226 175.889 140.31 175.805 140.378C175.805 140.382 175.801 140.382 175.796 140.386C175.796 140.386 175.796 140.39 175.793 140.39C175.768 140.41 175.74 140.43 175.712 140.446C175.692 140.462 175.672 140.474 175.652 140.487C175.648 140.487 175.648 140.49 175.644 140.49C175.607 140.511 175.568 140.527 175.527 140.543C175.483 140.559 175.435 140.575 175.387 140.583C175.378 140.587 175.371 140.587 175.359 140.587C175.306 140.599 175.254 140.603 175.198 140.603H139.82C139.764 140.603 139.712 140.599 139.659 140.587C139.652 140.587 139.64 140.587 139.631 140.583C139.583 140.575 139.535 140.559 139.491 140.543C139.45 140.527 139.41 140.511 139.374 140.49C139.358 140.478 139.342 140.471 139.33 140.462C139.198 140.382 139.089 140.265 139.013 140.133C138.984 140.089 138.965 140.037 138.944 139.989C138.928 139.936 138.912 139.884 138.904 139.828C138.892 139.776 138.888 139.724 138.888 139.671V134.553C138.888 134.497 138.892 134.445 138.904 134.393C138.976 133.955 139.358 133.621 139.82 133.621H175.198C175.664 133.621 176.046 133.955 176.118 134.393C176.13 134.445 176.134 134.497 176.134 134.553Z" fill="#DBB180"/>
<g id="Group_6">
<path id="Vector_3" d="M145.284 133.62H142.141V140.602H145.284V133.62Z" fill="#F1D4AB"/>
<path id="Vector_4" d="M150.331 133.62H147.191V140.602H150.331V133.62Z" fill="#F1D4AB"/>
<path id="Vector_5" d="M172.88 133.621H165.026V140.603H172.88V133.621Z" fill="#F1D4AB"/>
</g>
<path id="Vector_6" d="M176.118 134.392H138.905C138.977 133.954 139.359 133.621 139.821 133.621H175.198C175.664 133.621 176.046 133.954 176.118 134.392Z" fill="#F1D4AB"/>
<path id="Vector_7" d="M176.118 139.828C176.111 139.884 176.094 139.936 176.078 139.988C176.058 140.036 176.038 140.089 176.01 140.133C175.957 140.225 175.889 140.31 175.805 140.378C175.805 140.382 175.801 140.382 175.796 140.386C175.796 140.386 175.796 140.39 175.793 140.386V140.39C175.768 140.41 175.74 140.43 175.712 140.446C175.692 140.462 175.672 140.474 175.652 140.486C175.648 140.486 175.648 140.49 175.644 140.49C175.607 140.511 175.568 140.527 175.527 140.543C175.483 140.559 175.435 140.575 175.387 140.583C175.378 140.587 175.371 140.587 175.359 140.587C175.306 140.599 175.254 140.603 175.198 140.603H139.82C139.764 140.603 139.712 140.599 139.659 140.587C139.652 140.587 139.64 140.587 139.631 140.583C139.583 140.575 139.535 140.559 139.491 140.543C139.45 140.527 139.41 140.511 139.374 140.49C139.358 140.478 139.342 140.47 139.33 140.462C139.198 140.382 139.089 140.265 139.013 140.133C138.984 140.089 138.965 140.036 138.944 139.988C138.928 139.936 138.912 139.884 138.904 139.828H176.118Z" fill="#F1D4AB"/>
</g>
</g>
<g id="Group_7">
<g id="Group_8">
<path id="Vector_8" d="M183.649 127.583V132.701C183.649 132.754 183.645 132.806 183.633 132.858C183.625 132.914 183.609 132.967 183.593 133.019C183.572 133.067 183.553 133.119 183.524 133.163C183.472 133.255 183.404 133.34 183.32 133.408C183.32 133.412 183.316 133.412 183.312 133.416C183.312 133.416 183.312 133.42 183.308 133.42C183.283 133.44 183.255 133.46 183.227 133.476C183.207 133.492 183.187 133.504 183.167 133.517C183.163 133.517 183.163 133.52 183.159 133.52C183.123 133.54 183.083 133.556 183.042 133.573C182.998 133.589 182.95 133.605 182.902 133.613C182.894 133.617 182.886 133.617 182.874 133.617C182.821 133.629 182.769 133.633 182.713 133.633H147.336C147.279 133.633 147.227 133.629 147.175 133.617C147.167 133.617 147.155 133.617 147.147 133.613C147.099 133.605 147.05 133.589 147.006 133.573C146.966 133.557 146.926 133.541 146.89 133.52C146.874 133.508 146.858 133.5 146.846 133.492C146.713 133.412 146.605 133.295 146.528 133.163C146.5 133.119 146.48 133.067 146.46 133.019C146.444 132.966 146.428 132.914 146.42 132.858C146.407 132.806 146.404 132.754 146.404 132.701V127.583C146.404 127.527 146.407 127.475 146.42 127.423C146.492 126.985 146.873 126.651 147.336 126.651H182.713C183.179 126.651 183.561 126.985 183.633 127.423C183.645 127.475 183.649 127.527 183.649 127.583Z" fill="#DBB180"/>
<g id="Group_9">
<path id="Vector_9" d="M152.799 126.65H149.656V133.632H152.799V126.65Z" fill="#F1D4AB"/>
<path id="Vector_10" d="M157.846 126.65H154.706V133.632H157.846V126.65Z" fill="#F1D4AB"/>
<path id="Vector_11" d="M180.396 126.651H172.541V133.634H180.396V126.651Z" fill="#F1D4AB"/>
</g>
<path id="Vector_12" d="M183.633 127.423H146.42C146.492 126.985 146.874 126.651 147.336 126.651H182.713C183.179 126.651 183.561 126.985 183.633 127.423Z" fill="#F1D4AB"/>
<path id="Vector_13" d="M183.633 132.858C183.625 132.915 183.609 132.967 183.593 133.019C183.572 133.067 183.553 133.119 183.524 133.163C183.472 133.256 183.404 133.34 183.32 133.408C183.32 133.412 183.316 133.412 183.312 133.417C183.312 133.417 183.312 133.42 183.308 133.417V133.42C183.283 133.44 183.255 133.461 183.227 133.477C183.207 133.493 183.187 133.505 183.167 133.517C183.163 133.517 183.163 133.521 183.159 133.521C183.123 133.541 183.083 133.557 183.042 133.573C182.998 133.589 182.95 133.605 182.902 133.613C182.894 133.617 182.886 133.617 182.874 133.617C182.821 133.629 182.769 133.633 182.713 133.633H147.336C147.279 133.633 147.227 133.629 147.175 133.617C147.167 133.617 147.155 133.617 147.147 133.613C147.099 133.605 147.05 133.589 147.006 133.573C146.966 133.557 146.926 133.541 146.89 133.521C146.874 133.509 146.858 133.5 146.846 133.493C146.713 133.412 146.605 133.296 146.528 133.163C146.5 133.119 146.48 133.067 146.46 133.019C146.444 132.967 146.428 132.915 146.42 132.858H183.633Z" fill="#F1D4AB"/>
</g>
</g>
</g>
<g id="Group_10">
<g id="Group_11">
<g id="Group_12">
<g id="Group_13">
<g id="Group_14">
<path id="Vector_14" d="M121.777 5.76581C120.754 6.38599 119.421 6.05869 118.801 5.03507C118.181 4.01145 118.508 2.67895 119.531 2.05877C120.555 1.43858 121.887 1.76589 122.508 2.7895C123.128 3.81312 122.801 5.14562 121.777 5.76581Z" fill="#E8CEB9"/>
<path id="Vector_15" d="M118.971 3.51587L115.95 7.30631L117.729 8.91618L121.133 5.12816L118.971 3.51587Z" fill="#E8CEB9"/>
</g>
<g id="Group_15">
<path id="Vector_16" d="M113.203 15.2649C112.91 15.4332 112.578 15.5345 112.234 15.5568L101.62 17.5987L102.787 12.1509L111.021 11.6209L117.195 4.61609L120.556 7.57881L113.77 14.8028C113.606 14.9885 113.414 15.1437 113.203 15.2649Z" fill="#5A7FF8"/>
</g>
</g>
<g id="Group_16">
<path id="Vector_17" d="M102.408 12.1722C102.408 12.1722 105.893 11.9298 106.894 14.0119C107.186 14.619 105.768 16.1227 105.789 16.7962V23.8704L89.0331 26.9005L89.3808 18.7203C89.4826 16.3229 91.0469 14.235 93.3191 13.464L98.2854 12.4011L102.408 12.1722Z" fill="#5A7FF8"/>
<path id="Vector_18" d="M105.79 16.7961L104.038 17.1346L105.79 20.6433V16.7961Z" fill="#4D75DE"/>
</g>
</g>
<g id="Group_17">
<g id="Group_18">
<g id="Group_19">
<path id="Vector_19" d="M101.176 10.7031L97.8244 8.38672L97.1912 8.80131L97.244 12.9409C97.2581 14.0232 98.1391 14.8936 99.2219 14.8936C100.323 14.8936 101.211 13.995 101.199 12.8943L101.176 10.7031Z" fill="#E8CEB9"/>
</g>
<path id="Vector_20" d="M101.2 12.8943L98.3374 11.0803L98.6574 8.80518L101.175 10.8335L101.2 12.8943Z" fill="#131118"/>
</g>
<path id="Vector_21" d="M103.614 3.00959C103.614 3.00959 106.073 7.36543 101.925 7.36543L101.62 4.90554L102.367 3.00232L103.614 3.00959Z" fill="#131118"/>
<path id="Vector_22" d="M100.488 11.7145L100.368 11.7179C98.5769 11.7707 97.0825 10.3621 97.0296 8.57136L96.9215 4.40463C96.9079 3.94107 97.2726 3.55413 97.7361 3.54055L102.004 3.41447C102.831 3.39023 103.522 4.04145 103.547 4.86917L103.636 8.37643C103.688 10.1672 102.279 11.6616 100.488 11.7145Z" fill="#E8CEB9"/>
<path id="Vector_23" d="M104.936 3.56477C105.245 3.17734 105.751 2.24973 104.814 1.09858C104.176 0.314986 103.21 0.641808 102.183 1.08888C101.78 0.906078 101.201 0.338745 99.9307 0.338745C98.1855 0.33923 96.5912 1.10004 95.8144 2.71329C95.8144 2.71329 94.5149 3.02605 94.0668 4.61554C93.2919 7.3654 97.2089 10.2171 97.2089 10.2171L97.191 7.17484C98.7989 6.46883 98.4711 5.43939 98.3368 4.5302C100.917 5.06795 103.546 4.49674 103.546 4.49674C103.546 4.49674 103.598 4.82357 104.074 4.38667C104.424 4.2383 104.844 3.718 104.936 3.56477Z" fill="#131118"/>
<g id="Group_20">
<path id="Vector_24" d="M97.7589 7.33099C97.7778 7.9759 97.2706 8.51413 96.6257 8.53305C95.9808 8.55196 95.4425 8.04475 95.4236 7.39984C95.4047 6.75493 95.9119 6.21669 96.5568 6.19778C97.2017 6.17887 97.74 6.68656 97.7589 7.33099Z" fill="#E8CEB9"/>
</g>
</g>
</g>
<g id="Group_21">
<g id="Group_22">
<path id="Vector_25" d="M118.257 48.1186H91.212C89.3544 48.1186 87.8488 46.613 87.8488 44.7554V42.7872C87.8488 40.9296 89.3544 39.424 91.212 39.424H118.257C120.115 39.424 121.62 40.9296 121.62 42.7872V44.7554C121.62 46.613 120.114 48.1186 118.257 48.1186Z" fill="#F1D3AC"/>
<g id="Group_23">
<g id="Group_24">
<path id="Vector_26" d="M128.85 21.875C128.85 21.875 129.67 19.4117 120.633 18.5782C111.597 17.7441 97.0901 24.3164 97.0901 24.3164L121.465 29.5378L127.53 25.3968L128.85 21.875Z" fill="#6CB08F"/>
<path id="Vector_27" d="M90.5584 39.3391C90.5584 39.3391 76.7752 34.6114 76.4721 25.3173C76.1691 16.0233 91.7197 18.4328 96.8728 20.3835C102.025 22.3342 127.031 28.8745 128.85 21.875C128.85 21.875 131.083 33.9209 118.373 39.3396H90.5584V39.3391Z" fill="#80D0B1"/>
</g>
<path id="Vector_28" d="M95.6232 19.9931C95.6232 19.9931 96.5663 18.7436 98.8899 19.7744C101.214 20.8053 101.405 22.582 100.281 23.224C99.1566 23.866 97.3926 22.4603 96.7161 20.3883L95.6232 19.9931Z" fill="#E8CEB9"/>
</g>
</g>
<g id="Group_25">
<path id="Vector_29" d="M148.426 87.3256C136.895 49.7771 119.156 48.0033 119.156 48.0033H105.059H103.191H90.3398C90.3398 48.0033 71.3541 49.7771 59.8237 87.3256C48.2933 124.874 55.6846 135.813 67.5108 140.544H103.191H105.059H141.655C153.481 135.813 159.957 124.874 148.426 87.3256Z" fill="#80D0B1"/>
<g id="Group_26">
<path id="Vector_30" d="M121.45 108.307C130.907 98.8494 130.907 83.5161 121.45 74.0587C111.992 64.6014 96.6589 64.6014 87.2015 74.0587C77.7442 83.5161 77.7442 98.8494 87.2015 108.307C96.6589 117.764 111.992 117.764 121.45 108.307Z" fill="white"/>
</g>
<g id="Group_27">
<path id="Vector_31" d="M97.5438 48.1187C97.5438 48.1187 91.3168 51.1808 86.9459 59.8604C86.9459 59.8604 94.3203 50.6838 101.225 48.1187H97.5438Z" fill="#78C2A2"/>
<path id="Vector_32" d="M110.766 48.1187C110.766 48.1187 116.993 51.1808 121.364 59.8604C121.364 59.8604 113.99 50.6838 107.085 48.1187H110.766Z" fill="#78C2A2"/>
</g>
</g>
</g>
</g>
<g id="Group_28">
<g id="Group_29">
<g id="Group_30">
<path id="Vector_33" d="M54.2217 134.553V139.671C54.2217 139.724 54.2178 139.776 54.2057 139.828C54.1974 139.884 54.1814 139.937 54.1654 139.989C54.1451 140.037 54.1252 140.089 54.0971 140.133C54.0447 140.226 53.9763 140.31 53.8919 140.378C53.8919 140.382 53.8881 140.382 53.8842 140.386C53.8842 140.386 53.8842 140.39 53.8803 140.39C53.8561 140.41 53.8279 140.43 53.7998 140.446C53.7799 140.462 53.7596 140.474 53.7397 140.487C53.7358 140.487 53.7358 140.49 53.7314 140.49C53.6951 140.511 53.6553 140.527 53.6151 140.543C53.5709 140.559 53.5224 140.575 53.4744 140.583C53.4662 140.587 53.4584 140.587 53.4463 140.587C53.3939 140.599 53.3421 140.603 53.2858 140.603H17.9082C17.8519 140.603 17.7996 140.599 17.7477 140.587C17.7394 140.587 17.7278 140.587 17.7195 140.583C17.6715 140.575 17.6231 140.559 17.5789 140.543C17.5387 140.527 17.4984 140.511 17.4626 140.49C17.4465 140.478 17.4305 140.471 17.4184 140.462C17.286 140.382 17.1774 140.265 17.1008 140.133C17.0727 140.089 17.0528 140.037 17.0324 139.989C17.0164 139.936 17.0004 139.884 16.9922 139.828C16.9801 139.776 16.9762 139.724 16.9762 139.671V134.553C16.9762 134.497 16.9801 134.445 16.9922 134.393C17.0644 133.955 17.4461 133.621 17.9082 133.621H53.2858C53.7518 133.621 54.1334 133.955 54.2057 134.393C54.2178 134.445 54.2217 134.497 54.2217 134.553Z" fill="#DBB180"/>
<g id="Group_31">
<path id="Vector_34" d="M23.3715 133.62H20.2289V140.602H23.3715V133.62Z" fill="#F1D4AB"/>
<path id="Vector_35" d="M28.4183 133.62H25.2786V140.602H28.4183V133.62Z" fill="#F1D4AB"/>
<path id="Vector_36" d="M50.9674 133.621H43.1135V140.603H50.9674V133.621Z" fill="#F1D4AB"/>
</g>
<path id="Vector_37" d="M54.2057 134.392H16.9922C17.0644 133.954 17.4461 133.621 17.9082 133.621H53.2858C53.7518 133.621 54.1334 133.954 54.2057 134.392Z" fill="#F1D4AB"/>
<path id="Vector_38" d="M54.2057 139.828C54.1974 139.884 54.1814 139.936 54.1654 139.988C54.145 140.036 54.1252 140.089 54.097 140.133C54.0447 140.225 53.9763 140.31 53.8919 140.378C53.8919 140.382 53.888 140.382 53.8842 140.386C53.8842 140.386 53.8842 140.39 53.8803 140.386V140.39C53.856 140.41 53.8279 140.43 53.7998 140.446C53.7799 140.462 53.7596 140.474 53.7397 140.486C53.7358 140.486 53.7358 140.49 53.7314 140.49C53.6951 140.511 53.6553 140.527 53.6151 140.543C53.5709 140.559 53.5224 140.575 53.4744 140.583C53.4662 140.587 53.4584 140.587 53.4463 140.587C53.3939 140.599 53.3421 140.603 53.2858 140.603H17.9082C17.8519 140.603 17.7995 140.599 17.7477 140.587C17.7394 140.587 17.7278 140.587 17.7195 140.583C17.6715 140.575 17.623 140.559 17.5789 140.543C17.5387 140.527 17.4984 140.511 17.4625 140.49C17.4465 140.478 17.4305 140.47 17.4184 140.462C17.286 140.382 17.1774 140.265 17.1008 140.133C17.0727 140.089 17.0528 140.036 17.0324 139.988C17.0164 139.936 17.0004 139.884 16.9922 139.828H54.2057Z" fill="#F1D4AB"/>
</g>
</g>
<g id="Group_32">
<g id="Group_33">
<path id="Vector_39" d="M94.8088 134.553V139.671C94.8088 139.724 94.8049 139.776 94.7928 139.828C94.7846 139.884 94.7686 139.937 94.7526 139.989C94.7322 140.037 94.7123 140.089 94.6842 140.133C94.6318 140.226 94.5635 140.31 94.4791 140.378C94.4791 140.382 94.4752 140.382 94.4713 140.386C94.4713 140.386 94.4713 140.39 94.4675 140.39C94.4432 140.41 94.4151 140.43 94.387 140.446C94.3671 140.462 94.3467 140.474 94.3268 140.487C94.323 140.487 94.323 140.49 94.3186 140.49C94.2822 140.511 94.2425 140.527 94.2022 140.543C94.1581 140.559 94.1096 140.575 94.0616 140.583C94.0534 140.587 94.0456 140.587 94.0335 140.587C93.9811 140.599 93.9292 140.603 93.873 140.603H58.4953C58.4391 140.603 58.3867 140.599 58.3348 140.587C58.3266 140.587 58.3149 140.587 58.3067 140.583C58.2587 140.575 58.2102 140.559 58.1661 140.543C58.1258 140.527 58.0856 140.511 58.0497 140.49C58.0337 140.478 58.0177 140.471 58.0056 140.462C57.8732 140.382 57.7646 140.265 57.688 140.133C57.6599 140.089 57.64 140.037 57.6196 139.989C57.6036 139.936 57.5876 139.884 57.5794 139.828C57.5672 139.776 57.5634 139.724 57.5634 139.671V134.553C57.5634 134.497 57.5672 134.445 57.5794 134.393C57.6516 133.955 58.0332 133.621 58.4953 133.621H93.873C94.339 133.621 94.7206 133.955 94.7928 134.393C94.8049 134.445 94.8088 134.497 94.8088 134.553Z" fill="#DBB180"/>
<g id="Group_34">
<path id="Vector_40" d="M63.9582 133.62H60.8156V140.602H63.9582V133.62Z" fill="#F1D4AB"/>
<path id="Vector_41" d="M69.0056 133.62H65.8658V140.602H69.0056V133.62Z" fill="#F1D4AB"/>
<path id="Vector_42" d="M91.5548 133.621H83.7004V140.603H91.5548V133.621Z" fill="#F1D4AB"/>
</g>
<path id="Vector_43" d="M94.7929 134.392H57.5795C57.6517 133.954 58.0333 133.621 58.4954 133.621H93.8731C94.3386 133.621 94.7207 133.954 94.7929 134.392Z" fill="#F1D4AB"/>
<path id="Vector_44" d="M94.7928 139.828C94.7846 139.884 94.7686 139.936 94.7526 139.988C94.7322 140.036 94.7123 140.089 94.6842 140.133C94.6318 140.225 94.5635 140.31 94.4791 140.378C94.4791 140.382 94.4752 140.382 94.4713 140.386C94.4713 140.386 94.4713 140.39 94.4674 140.386V140.39C94.4432 140.41 94.4151 140.43 94.387 140.446C94.3671 140.462 94.3467 140.474 94.3268 140.486C94.3229 140.486 94.3229 140.49 94.3186 140.49C94.2822 140.511 94.2425 140.527 94.2022 140.543C94.1581 140.559 94.1096 140.575 94.0616 140.583C94.0533 140.587 94.0456 140.587 94.0335 140.587C93.9811 140.599 93.9292 140.603 93.873 140.603H58.4953C58.4391 140.603 58.3867 140.599 58.3348 140.587C58.3266 140.587 58.3149 140.587 58.3067 140.583C58.2587 140.575 58.2102 140.559 58.1661 140.543C58.1258 140.527 58.0856 140.511 58.0497 140.49C58.0337 140.478 58.0177 140.47 58.0056 140.462C57.8732 140.382 57.7646 140.265 57.688 140.133C57.6598 140.089 57.64 140.036 57.6196 139.988C57.6036 139.936 57.5876 139.884 57.5793 139.828H94.7928Z" fill="#F1D4AB"/>
</g>
</g>
<g id="Group_35">
<g id="Group_36">
<path id="Vector_45" d="M68.6874 120.614V125.732C68.6874 125.784 68.6835 125.836 68.6714 125.889C68.6636 125.945 68.6471 125.997 68.6311 126.049C68.6107 126.097 68.5909 126.15 68.5627 126.194C68.5104 126.286 68.442 126.371 68.3576 126.439C68.3576 126.442 68.3538 126.442 68.3499 126.447C68.3499 126.447 68.3499 126.451 68.346 126.451C68.3218 126.471 68.2936 126.491 68.2655 126.507C68.2456 126.523 68.2253 126.535 68.2054 126.547C68.2015 126.547 68.2015 126.551 68.1971 126.551C68.1608 126.571 68.121 126.587 68.0808 126.603C68.0366 126.619 67.9886 126.635 67.9401 126.644C67.9319 126.648 67.9241 126.648 67.912 126.648C67.8596 126.66 67.8078 126.664 67.7515 126.664H32.3734C32.3171 126.664 32.2648 126.66 32.2129 126.648C32.2046 126.648 32.193 126.648 32.1848 126.644C32.1368 126.635 32.0883 126.619 32.0441 126.603C32.0039 126.587 31.9636 126.571 31.9278 126.551C31.9118 126.539 31.8958 126.531 31.8836 126.523C31.7513 126.442 31.6426 126.326 31.566 126.194C31.5379 126.15 31.518 126.097 31.4977 126.049C31.4817 125.997 31.4657 125.945 31.4574 125.889C31.4453 125.836 31.4414 125.784 31.4414 125.732V120.614C31.4414 120.558 31.4453 120.505 31.4574 120.453C31.5297 120.016 31.9113 119.682 32.3734 119.682H67.751C68.217 119.682 68.5986 120.016 68.6709 120.453C68.683 120.505 68.6874 120.558 68.6874 120.614Z" fill="#DBB180"/>
<g id="Group_37">
<path id="Vector_46" d="M37.8368 119.68H34.6942V126.663H37.8368V119.68Z" fill="#F1D4AB"/>
<path id="Vector_47" d="M42.8842 119.68H39.7445V126.663H42.8842V119.68Z" fill="#F1D4AB"/>
<path id="Vector_48" d="M65.4335 119.682H57.5791V126.664H65.4335V119.682Z" fill="#F1D4AB"/>
</g>
<path id="Vector_49" d="M68.6716 120.453H31.4576C31.5299 120.015 31.9115 119.682 32.3736 119.682H67.7513C68.2172 119.682 68.5989 120.015 68.6716 120.453Z" fill="#F1D4AB"/>
<path id="Vector_50" d="M68.6714 125.889C68.6636 125.945 68.6471 125.997 68.6311 126.049C68.6107 126.097 68.5909 126.149 68.5627 126.194C68.5104 126.286 68.442 126.371 68.3576 126.438C68.3576 126.442 68.3537 126.442 68.3499 126.447C68.3499 126.447 68.3499 126.451 68.346 126.447V126.451C68.3217 126.47 68.2936 126.491 68.2655 126.507C68.2456 126.523 68.2252 126.535 68.2054 126.547C68.2015 126.547 68.2015 126.551 68.1971 126.551C68.1607 126.571 68.121 126.587 68.0807 126.603C68.0366 126.619 67.9886 126.635 67.9401 126.644C67.9319 126.647 67.9241 126.647 67.912 126.647C67.8596 126.66 67.8077 126.663 67.7515 126.663H32.3734C32.3171 126.663 32.2648 126.66 32.2129 126.647C32.2046 126.647 32.193 126.647 32.1847 126.644C32.1367 126.635 32.0882 126.619 32.0441 126.603C32.0039 126.587 31.9636 126.571 31.9277 126.551C31.9117 126.539 31.8957 126.531 31.8836 126.523C31.7512 126.442 31.6426 126.326 31.566 126.194C31.5379 126.149 31.518 126.097 31.4976 126.049C31.4816 125.997 31.4656 125.945 31.4574 125.889H68.6714Z" fill="#F1D4AB"/>
</g>
</g>
<g id="Group_38">
<g id="Group_39">
<path id="Vector_51" d="M73.4635 113.644V118.762C73.4635 118.814 73.4596 118.866 73.4475 118.919C73.4392 118.975 73.4232 119.027 73.4072 119.079C73.3874 119.127 73.367 119.179 73.3389 119.224C73.2865 119.316 73.2181 119.401 73.1338 119.468C73.1338 119.472 73.1299 119.472 73.126 119.477C73.126 119.477 73.126 119.481 73.1221 119.481C73.0979 119.5 73.0698 119.521 73.0416 119.537C73.0217 119.553 73.0014 119.565 72.9815 119.577C72.9776 119.577 72.9776 119.581 72.9733 119.581C72.9369 119.601 72.8971 119.617 72.8569 119.633C72.8128 119.649 72.7648 119.665 72.7163 119.674C72.708 119.677 72.7003 119.677 72.6881 119.677C72.6358 119.69 72.5839 119.693 72.5276 119.693H37.15C37.0937 119.693 37.0414 119.69 36.9895 119.677C36.9812 119.677 36.9696 119.677 36.9614 119.674C36.9134 119.665 36.8649 119.649 36.8207 119.633C36.7805 119.617 36.7403 119.601 36.7044 119.581C36.6884 119.569 36.6724 119.561 36.6602 119.553C36.5279 119.472 36.4192 119.356 36.3426 119.224C36.3145 119.179 36.2946 119.127 36.2743 119.079C36.2583 119.027 36.2423 118.975 36.234 118.919C36.2219 118.866 36.218 118.814 36.218 118.762V113.644C36.218 113.588 36.2219 113.535 36.234 113.483C36.3063 113.046 36.6879 112.712 37.15 112.712H72.5276C72.9936 112.712 73.3752 113.046 73.4475 113.483C73.4596 113.536 73.4635 113.588 73.4635 113.644Z" fill="#DBB180"/>
<g id="Group_40">
<path id="Vector_52" d="M42.6134 112.711H39.4708V119.693H42.6134V112.711Z" fill="#F1D4AB"/>
<path id="Vector_53" d="M47.6603 112.711H44.5206V119.693H47.6603V112.711Z" fill="#F1D4AB"/>
<path id="Vector_54" d="M70.2096 112.712H62.3557V119.694H70.2096V112.712Z" fill="#F1D4AB"/>
</g>
<path id="Vector_55" d="M73.4478 113.483H36.2339C36.3061 113.046 36.6878 112.712 37.1499 112.712H72.5275C72.994 112.712 73.3756 113.046 73.4478 113.483Z" fill="#F1D4AB"/>
<path id="Vector_56" d="M73.4476 118.919C73.4394 118.975 73.4234 119.028 73.4074 119.08C73.3875 119.128 73.3671 119.18 73.339 119.224C73.2866 119.316 73.2182 119.401 73.1339 119.469C73.1339 119.473 73.13 119.473 73.1261 119.477C73.1261 119.477 73.1261 119.481 73.1222 119.477V119.481C73.098 119.501 73.0699 119.521 73.0417 119.537C73.0219 119.553 73.0015 119.565 72.9816 119.578C72.9777 119.578 72.9777 119.581 72.9734 119.581C72.937 119.601 72.8972 119.617 72.857 119.634C72.8129 119.65 72.7649 119.666 72.7164 119.674C72.7081 119.678 72.7004 119.678 72.6883 119.678C72.6359 119.69 72.584 119.694 72.5278 119.694H37.1501C37.0939 119.694 37.0415 119.69 36.9896 119.678C36.9814 119.678 36.9697 119.678 36.9615 119.674C36.9135 119.666 36.865 119.65 36.8209 119.634C36.7806 119.618 36.7404 119.602 36.7045 119.581C36.6885 119.569 36.6725 119.561 36.6604 119.553C36.528 119.473 36.4194 119.356 36.3427 119.224C36.3146 119.18 36.2947 119.128 36.2744 119.08C36.2584 119.027 36.2424 118.975 36.2341 118.919H73.4476Z" fill="#F1D4AB"/>
</g>
</g>
<g id="Group_41">
<g id="Group_42">
<path id="Vector_57" d="M76.2015 127.583V132.701C76.2015 132.754 76.1976 132.806 76.1855 132.858C76.1778 132.914 76.1613 132.967 76.1453 133.019C76.1249 133.067 76.105 133.119 76.0769 133.163C76.0245 133.255 75.9562 133.34 75.8718 133.408C75.8718 133.412 75.8679 133.412 75.8635 133.416C75.8635 133.416 75.8636 133.42 75.8597 133.42C75.8354 133.44 75.8073 133.46 75.7792 133.476C75.7588 133.492 75.7389 133.504 75.719 133.517C75.7152 133.517 75.7152 133.52 75.7108 133.52C75.6749 133.54 75.6347 133.556 75.5944 133.573C75.5503 133.589 75.5018 133.605 75.4538 133.613C75.4456 133.617 75.4378 133.617 75.4257 133.617C75.3733 133.629 75.3214 133.633 75.2652 133.633H39.8875C39.8313 133.633 39.7789 133.629 39.727 133.617C39.7188 133.617 39.7072 133.617 39.6989 133.613C39.6504 133.605 39.6024 133.589 39.5583 133.573C39.518 133.557 39.4778 133.541 39.4419 133.52C39.4259 133.508 39.4099 133.5 39.3978 133.492C39.2654 133.412 39.1568 133.295 39.0802 133.163C39.0521 133.119 39.0322 133.067 39.0118 133.019C38.9958 132.966 38.9798 132.914 38.9716 132.858C38.9594 132.806 38.9556 132.754 38.9556 132.701V127.583C38.9556 127.527 38.9594 127.475 38.9716 127.423C39.0438 126.985 39.4254 126.651 39.8875 126.651H75.2652C75.7312 126.651 76.1128 126.985 76.185 127.423C76.1976 127.475 76.2015 127.527 76.2015 127.583Z" fill="#DBB180"/>
<g id="Group_43">
<path id="Vector_58" d="M45.3515 126.65H42.2089V133.632H45.3515V126.65Z" fill="#F1D4AB"/>
<path id="Vector_59" d="M50.3984 126.65H47.2587V133.632H50.3984V126.65Z" fill="#F1D4AB"/>
<path id="Vector_60" d="M72.948 126.651H65.0936V133.634H72.948V126.651Z" fill="#F1D4AB"/>
</g>
<path id="Vector_61" d="M76.1856 127.423H38.9722C39.0444 126.985 39.426 126.651 39.8881 126.651H75.2658C75.7318 126.651 76.1134 126.985 76.1856 127.423Z" fill="#F1D4AB"/>
<path id="Vector_62" d="M76.1856 132.858C76.1779 132.915 76.1614 132.967 76.1454 133.019C76.125 133.067 76.1051 133.119 76.077 133.163C76.0246 133.256 75.9563 133.34 75.8719 133.408C75.8719 133.412 75.868 133.412 75.8637 133.417C75.8637 133.417 75.8637 133.42 75.8598 133.417V133.42C75.8355 133.44 75.8074 133.461 75.7793 133.477C75.7589 133.493 75.739 133.505 75.7192 133.517C75.7153 133.517 75.7153 133.521 75.7109 133.521C75.675 133.541 75.6348 133.557 75.5945 133.573C75.5504 133.589 75.5019 133.605 75.4539 133.613C75.4457 133.617 75.4379 133.617 75.4258 133.617C75.3734 133.629 75.3216 133.633 75.2653 133.633H39.8877C39.8314 133.633 39.779 133.629 39.7272 133.617C39.7189 133.617 39.7073 133.617 39.699 133.613C39.6505 133.605 39.6025 133.589 39.5584 133.573C39.5182 133.557 39.4779 133.541 39.442 133.521C39.426 133.509 39.41 133.5 39.3979 133.493C39.2655 133.412 39.1569 133.296 39.0803 133.163C39.0522 133.119 39.0323 133.067 39.0119 133.019C38.9959 132.967 38.9799 132.915 38.9717 132.858H76.1856Z" fill="#F1D4AB"/>
</g>
</g>
</g>
</g>
<g id="Group_44">
<g id="Group_45">
<path id="Vector_63" d="M40.5571 82.3103C43.7817 83.8159 47.4863 93.0702 47.4863 93.0702L40.5571 93.8358V82.3103Z" fill="#4D75DE"/>
<path id="Vector_64" d="M34.1675 81.8914L33.4373 82.0019C31.7426 82.4868 30.4935 83.8634 30.2641 85.4995L29.223 100.53C35.454 102.766 42.547 98.8623 42.547 98.8623L42.949 88.066C42.9728 86.5318 41.5501 82.2497 39.8282 81.9418L34.1675 81.8914Z" fill="#5A7FF8"/>
</g>
<g id="Group_46">
<g id="Group_47">
<g id="Group_48">
<path id="Vector_65" d="M44.9164 137.222L44.1372 132.275L47.8321 131.665L48.2724 137.222L44.9164 137.222Z" fill="#D7A893"/>
<path id="Vector_66" d="M44.9165 137.223L44.5 139.73C44.5 140.097 44.7972 140.394 45.1638 140.394L51.8821 140.394C52.191 140.394 52.4412 140.144 52.4412 139.834C52.4412 139.66 52.3602 139.496 52.2215 139.39L48.272 137.222L44.9165 137.223Z" fill="#131118"/>
</g>
<path id="Vector_67" d="M37.4263 105.892L41.6779 117.2L43.5496 133.936L48.4708 133.17L46.9632 116.94L43.7993 106.195L37.4263 105.892Z" fill="#B1C1F2"/>
<path id="Vector_68" d="M49.0579 132.669L42.8832 133.047L43.0713 135.21L49.2858 134.822L49.0579 132.669Z" fill="#C6D3F4"/>
</g>
<g id="Group_49">
<g id="Group_50">
<path id="Vector_69" d="M28.0415 137.222L28.957 132.275L32.6519 131.665L31.397 137.222L28.0415 137.222Z" fill="#D7A893"/>
<path id="Vector_70" d="M28.0415 137.222L27.625 139.73C27.625 140.097 27.9222 140.394 28.2888 140.394L35.0071 140.394C35.316 140.394 35.5662 140.143 35.5662 139.834C35.5662 139.66 35.4852 139.496 35.3465 139.39L31.397 137.222L28.0415 137.222Z" fill="#131118"/>
</g>
<path id="Vector_71" d="M31.6307 107.062L30.8573 117.671L27.625 135.182L33.0112 135.624L36.5229 118.15L36.921 105.914L31.6307 107.062Z" fill="#B1C1F2"/>
<path id="Vector_72" d="M33.739 133.329L27.4154 132.796L27.0717 135.228L33.3952 135.76L33.739 133.329Z" fill="#C6D3F4"/>
</g>
</g>
<g id="Group_51">
<g id="Group_52">
<path id="Vector_73" d="M37.2146 83.0507C38.0709 83.0623 38.7745 82.3771 38.7856 81.5208L38.8181 79.1041L35.7172 79.0624L35.6847 81.4791C35.6736 82.3354 36.3582 83.039 37.2146 83.0507Z" fill="#E8CEB9"/>
<path id="Vector_74" d="M38.8181 79.2563C38.8181 79.2563 39.0654 80.8798 37.8716 80.8638C36.6778 80.8478 35.1964 78.4325 35.1964 78.4325L38.8181 79.2563Z" fill="#131118"/>
<path id="Vector_75" d="M38.7856 81.5209L39.9382 81.9641C39.9382 81.9641 40.0347 83.8396 37.2907 83.8154C34.5462 83.7911 34.167 81.9054 34.167 81.9054L35.6871 81.2915L38.7856 81.5209Z" fill="#E8CEB9"/>
</g>
<g id="Group_53">
<g id="Group_54">
<path id="Vector_76" d="M35.6039 69.8736C35.5752 71.9897 33.8374 73.6815 31.7213 73.6534C29.6052 73.6248 27.9134 71.8869 27.9415 69.7708C27.9701 67.6552 29.708 65.9629 31.8241 65.9911C33.9402 66.0197 35.6325 67.758 35.6039 69.8736Z" fill="#131118"/>
</g>
<path id="Vector_77" d="M42.3846 74.1601C42.3478 76.9153 40.0843 79.1187 37.3291 79.0818C34.5739 79.045 32.6498 76.7854 32.6867 74.0302C32.7235 71.275 34.7077 69.0677 37.4629 69.1046C40.2181 69.1414 42.4215 71.4049 42.3846 74.1601Z" fill="#131118"/>
<path id="Vector_78" d="M31.908 75.6933C31.8983 76.4323 32.4889 77.0394 33.2278 77.0496C33.9668 77.0592 34.5739 76.4687 34.5841 75.7297C34.5943 74.9907 34.0032 74.3836 33.2642 74.3734C32.5252 74.3637 31.9181 74.9543 31.908 75.6933Z" fill="#E8CEB9"/>
<path id="Vector_79" d="M37.8145 79.8829C39.9495 79.9115 41.7199 78.1882 41.749 76.0532L41.7834 73.4803C41.8009 72.1696 40.7428 71.0825 39.4321 71.0651L36.8229 71.0301C35.4017 71.0112 34.2229 72.1585 34.204 73.5797L34.1695 76.1385C34.1419 78.1707 35.7823 79.8558 37.8145 79.8829Z" fill="#E8CEB9"/>
<path id="Vector_80" d="M33.7418 73.4036L34.2049 75.6157C34.2049 75.6157 35.8516 73.7562 35.3648 72.9212C34.3232 71.1377 33.7418 73.4036 33.7418 73.4036Z" fill="#131118"/>
<path id="Vector_81" d="M33.7932 73.649H42.1315C42.1315 73.649 42.0064 71.1261 39.6697 70.3367C37.0091 69.4372 34.169 71.2987 34.169 71.2987L33.7932 73.649Z" fill="#131118"/>
</g>
</g>
<g id="Group_55">
<g id="Group_56">
<path id="Vector_82" d="M46.2516 88.9946C39.2686 84.3667 29.8557 86.2758 25.2279 93.2588C20.6 100.242 22.5091 109.655 29.4921 114.282C36.4751 118.91 45.8879 117.001 50.5158 110.018C55.1436 103.035 53.2346 93.6225 46.2516 88.9946Z" fill="#DBB180"/>
<path id="Vector_83" d="M49.7303 102.558C50.2376 96.0069 45.3383 90.2852 38.7875 89.7779C32.2367 89.2707 26.515 94.17 26.0078 100.721C25.5006 107.272 30.3998 112.993 36.9506 113.5C43.5014 114.008 49.2231 109.108 49.7303 102.558Z" fill="#F1D4AB"/>
<path id="Vector_84" opacity="0.22" d="M44.5912 91.8197C44.404 91.6956 44.2144 91.5792 44.0229 91.4677C48.964 95.165 49.6676 101.853 46.1608 107.144C42.654 112.436 36.2204 114.394 30.8899 111.283C31.0674 111.416 31.2487 111.546 31.4359 111.67C36.8313 115.246 44.1499 113.701 47.7828 108.219C51.4151 102.738 49.9866 95.3953 44.5912 91.8197Z" fill="#CACACA"/>
</g>
<path id="Vector_85" d="M51.7812 95.598C51.7812 95.598 53.3009 95.373 53.7979 97.1143C54.295 98.8551 53.2321 99.7788 52.0906 99.5737C50.9492 99.3686 50.8313 97.8634 52.0862 96.367L51.7812 95.598Z" fill="#E8CEB9"/>
</g>
<g id="Group_57">
<g id="Group_58">
<path id="Vector_86" d="M31.0101 102.76C30.0505 103.321 29.7275 104.554 30.2891 105.514C30.8506 106.474 32.0837 106.797 33.0438 106.235C34.0034 105.674 34.3263 104.441 33.7648 103.481C33.2028 102.521 31.9697 102.198 31.0101 102.76Z" fill="#E8CEB9"/>
<path id="Vector_87" d="M29.4895 102.153L30.5471 103.96C30.8235 104.432 31.4354 104.592 31.9077 104.316C32.38 104.039 32.54 103.427 32.2636 102.955L31.2061 101.148C30.9297 100.676 30.3177 100.516 29.8454 100.792C29.3731 101.069 29.2131 101.68 29.4895 102.153Z" fill="#E8CEB9"/>
</g>
<path id="Vector_88" d="M29.3214 103.51L32.674 101.841L28.0743 92.6017L34.0375 85.6837C34.6897 84.8812 34.5675 83.7019 33.7655 83.0497C32.963 82.3975 31.7837 82.5192 31.1315 83.3217L24.4075 91.1756C23.9444 91.7454 23.8571 92.5333 24.1844 93.1909L29.3214 103.51Z" fill="#5A7FF8"/>
<path id="Vector_89" d="M32.5197 87.4443L33.7392 86.0299L34.1673 86.9299L32.5197 87.4443Z" fill="#4D75DE"/>
</g>
</g>
<g id="Group_59">
<path id="Vector_90" d="M0.0220947 140.544H209.978" stroke="#211E1D" stroke-width="0.9694" stroke-miterlimit="10"/>
<path id="Vector_91" d="M89.5579 153.468H161.754" stroke="#211E1D" stroke-width="0.9694" stroke-miterlimit="10"/>
</g>
<g id="Group_60">
<g id="Group_61">
<g id="Group_62">
<path id="Vector_92" d="M193.9 140.544C193.533 140.544 193.187 140.317 193.054 139.952L168.54 72.6405L144.026 139.952C143.856 140.42 143.34 140.66 142.872 140.49C142.404 140.32 142.163 139.803 142.334 139.335L167.694 69.6996C167.824 69.3442 168.162 69.1075 168.54 69.1075C168.919 69.1075 169.257 69.3442 169.387 69.6996L194.747 139.335C194.917 139.803 194.676 140.32 194.209 140.49C194.107 140.526 194.002 140.544 193.9 140.544Z" fill="#354683"/>
<path id="Vector_93" d="M171.464 78.9374H158.119C157.622 78.9374 157.219 78.5339 157.219 78.0364C157.219 77.5389 157.622 77.1355 158.119 77.1355H171.464C171.961 77.1355 172.365 77.5389 172.365 78.0364C172.365 78.5339 171.961 78.9374 171.464 78.9374Z" fill="#354683"/>
<path id="Vector_94" d="M174.899 88.757H162.181C161.684 88.757 161.281 88.3535 161.281 87.856C161.281 87.3585 161.684 86.9551 162.181 86.9551H174.899C175.397 86.9551 175.8 87.3585 175.8 87.856C175.8 88.3535 175.397 88.757 174.899 88.757Z" fill="#354683"/>
<path id="Vector_95" d="M160.778 88.757H148.596C148.119 88.757 147.733 88.3535 147.733 87.856C147.733 87.3585 148.119 86.9551 148.596 86.9551H160.778C161.254 86.9551 161.64 87.3585 161.64 87.856C161.64 88.3535 161.254 88.757 160.778 88.757Z" fill="#354683"/>
<path id="Vector_96" d="M178.334 98.5771H165.616C165.119 98.5771 164.715 98.1737 164.715 97.6762C164.715 97.1787 165.119 96.7753 165.616 96.7753H178.334C178.832 96.7753 179.235 97.1787 179.235 97.6762C179.235 98.1737 178.831 98.5771 178.334 98.5771Z" fill="#354683"/>
<path id="Vector_97" d="M158.119 98.5771H145.401C144.904 98.5771 144.5 98.1737 144.5 97.6762C144.5 97.1787 144.904 96.7753 145.401 96.7753H158.119C158.616 96.7753 159.02 97.1787 159.02 97.6762C159.02 98.1737 158.617 98.5771 158.119 98.5771Z" fill="#354683"/>
<path id="Vector_98" d="M181.769 108.396H169.051C168.553 108.396 168.15 107.993 168.15 107.495C168.15 106.998 168.553 106.594 169.051 106.594H181.769C182.266 106.594 182.67 106.998 182.67 107.495C182.67 107.993 182.266 108.396 181.769 108.396Z" fill="#354683"/>
<path id="Vector_99" d="M154.38 108.396H141.663C141.166 108.396 140.762 107.993 140.762 107.495C140.762 106.998 141.166 106.594 141.663 106.594H154.38C154.878 106.594 155.281 106.998 155.281 107.495C155.281 107.993 154.878 108.396 154.38 108.396Z" fill="#354683"/>
<path id="Vector_100" d="M185.203 118.216H172.486C171.988 118.216 171.585 117.813 171.585 117.315C171.585 116.818 171.988 116.415 172.486 116.415H185.203C185.701 116.415 186.104 116.818 186.104 117.315C186.104 117.813 185.701 118.216 185.203 118.216Z" fill="#354683"/>
<path id="Vector_101" d="M150.931 118.216H138.213C137.715 118.216 137.312 117.813 137.312 117.315C137.312 116.818 137.715 116.415 138.213 116.415H150.931C151.428 116.415 151.832 116.818 151.832 117.315C151.832 117.813 151.428 118.216 150.931 118.216Z" fill="#354683"/>
<path id="Vector_102" d="M188.638 128.036H175.921C175.424 128.036 175.02 127.633 175.02 127.135C175.02 126.638 175.424 126.234 175.921 126.234H188.638C189.136 126.234 189.539 126.638 189.539 127.135C189.539 127.633 189.136 128.036 188.638 128.036Z" fill="#354683"/>
<path id="Vector_103" d="M147.395 128.036H134.677C134.179 128.036 133.776 127.633 133.776 127.135C133.776 126.638 134.179 126.234 134.677 126.234H147.395C147.892 126.234 148.296 126.638 148.296 127.135C148.296 127.633 147.892 128.036 147.395 128.036Z" fill="#354683"/>
<path id="Vector_104" d="M168.474 70.9084H155.13C154.633 70.9084 154.229 70.505 154.229 70.0075C154.229 69.51 154.633 69.1066 155.13 69.1066H168.474C168.972 69.1066 169.375 69.51 169.375 70.0075C169.375 70.505 168.971 70.9084 168.474 70.9084Z" fill="#354683"/>
</g>
<path id="Vector_105" d="M180.367 140.544C179.999 140.544 179.653 140.317 179.521 139.952L155.007 72.6405L130.493 139.952C130.322 140.42 129.805 140.66 129.338 140.49C128.871 140.32 128.63 139.803 128.801 139.335L154.161 69.6996C154.29 69.3442 154.628 69.1075 155.007 69.1075C155.386 69.1075 155.724 69.3442 155.853 69.6996L181.213 139.335C181.384 139.803 181.143 140.32 180.676 140.49C180.573 140.526 180.469 140.544 180.367 140.544Z" fill="#597FFA"/>
</g>
<g id="Group_63">
<g id="Group_64">
<path id="Vector_106" d="M144.008 35.4555C152.265 34.7678 158.402 27.5164 157.714 19.2591C157.026 11.0017 149.775 4.86533 141.518 5.55303C133.26 6.24073 127.124 13.4921 127.811 21.7495C128.499 30.0068 135.751 36.1432 144.008 35.4555Z" fill="#DBB180"/>
<path id="Vector_107" d="M142.752 32.2742C149.25 32.2742 154.518 27.0063 154.518 20.5081C154.518 14.0099 149.25 8.74207 142.752 8.74207C136.254 8.74207 130.986 14.0099 130.986 20.5081C130.986 27.0063 136.254 32.2742 142.752 32.2742Z" fill="#F1D4AB"/>
<path id="Vector_108" opacity="0.22" d="M142.927 8.74207C142.705 8.74207 142.485 8.74982 142.266 8.76243C148.36 9.11059 152.594 14.2403 152.594 20.5183C152.594 26.7967 148.36 31.926 142.266 32.2742C142.485 32.2868 142.705 32.2945 142.927 32.2945C149.329 32.2945 154.518 27.0222 154.518 20.5183C154.518 14.0144 149.329 8.74207 142.927 8.74207Z" fill="#CACACA"/>
</g>
<g id="Group_65">
<g id="Group_66">
<g id="Group_67">
<path id="Vector_109" d="M144.502 36.6073C145.051 36.1787 144.523 34.9082 143.848 35.0799C142.751 35.3592 141.248 35.6011 140.366 35.1473C138.856 34.3705 139.44 37.9413 142.521 37.4646C143.515 37.3104 144.076 36.9395 144.502 36.6073Z" fill="#E8CEB9"/>
<path id="Vector_110" d="M144.43 35.2961L146.354 37.274L145.544 39.0585L142.483 36.4618L144.43 35.2961Z" fill="#E8CEB9"/>
</g>
<path id="Vector_111" d="M152.922 44.7962C152.502 44.7962 152.08 44.6653 151.722 44.3966L143.322 38.5915L145.724 35.3829L152.711 40.13L158.684 34.5527L160.58 37.7613L154.363 44.1857C153.973 44.5896 153.449 44.7962 152.922 44.7962Z" fill="#52388C"/>
</g>
<g id="Group_68">
<g id="Group_69">
<g id="Group_70">
<path id="Vector_112" d="M158.782 74.213L156.805 68.4606L153.415 67.8914L155.798 74.6775L158.782 74.213Z" fill="#D7A893"/>
<path id="Vector_113" d="M158.782 74.213L159.658 76.4333C159.709 76.7965 159.455 77.1316 159.092 77.182L151.865 78.0776C151.559 78.1198 151.276 77.9065 151.234 77.6005C151.21 77.4279 151.268 77.2543 151.39 77.1302L155.776 74.3648L158.782 74.213Z" fill="#131118"/>
</g>
<g id="Group_71">
<path id="Vector_114" d="M167.022 55.7025L154.541 60.2004L158.589 70.9549L153.43 71.9369L148.397 58.6094C148.324 57.9471 148.694 57.3148 149.307 57.0544L158.32 52.5662L167.022 55.7025Z" fill="#B1C1F2"/>
<path id="Vector_115" d="M162.601 57.2493L160.851 56.522L156.099 59.5923L162.601 57.2493Z" fill="#95A7DF"/>
</g>
</g>
<g id="Group_72">
<path id="Vector_116" d="M158.554 52.1065L157.654 55.6919L168.502 56.1608C168.502 56.1608 169.847 51.9931 168.221 51.032C166.127 49.7955 158.554 52.1065 158.554 52.1065Z" fill="#B1C1F2"/>
<g id="Group_73">
<path id="Vector_117" d="M173.664 83.8785L171.832 78.8501L168.864 79.0402L170.895 85.0849L173.664 83.8785Z" fill="#D7A893"/>
<path id="Vector_118" d="M173.717 83.8813L174.134 86.3892C174.134 86.7558 173.837 87.0531 173.47 87.0531L166.752 87.0526C166.443 87.0526 166.193 86.8019 166.193 86.493C166.193 86.3189 166.274 86.1545 166.412 86.0488L170.362 83.8809L173.717 83.8813Z" fill="#131118"/>
</g>
<path id="Vector_119" d="M168.502 56.1607L169.025 66.572L173.88 81.9874L169.039 82.1362L163.765 66.7373L162.221 54.2158L168.502 56.1607Z" fill="#B1C1F2"/>
</g>
</g>
<g id="Group_74">
<g id="Group_75">
<path id="Vector_120" d="M157.513 36.324C157.799 35.057 158.885 34.126 160.168 33.9252C161.983 33.6416 165.423 33.2565 166.834 34.1303C166.834 34.1303 169.094 35.0356 168.772 41.4906C168.627 44.3859 170.081 52.7373 170.081 52.7373C170.081 52.7373 163.833 55.2864 157.691 51.9925L157.405 38.4047C157.405 38.4047 157.27 37.3995 157.513 36.324Z" fill="#6649A6"/>
<path id="Vector_121" d="M157.506 43.1485L166.232 39.3654L157.546 45.0716L157.506 43.1485Z" fill="#52388C"/>
<path id="Vector_122" d="M158.408 34.7782L159.163 37.2323L160.214 37.146L158.738 38.0498L157.943 35.2447L158.408 34.7782Z" fill="#52388C"/>
</g>
<g id="Group_76">
<g id="Group_77">
<path id="Vector_123" d="M156.419 27.9737C156.338 29.168 155.304 30.0699 154.11 29.9889C152.915 29.9079 152.014 28.8737 152.095 27.6798C152.176 26.4855 153.21 25.5836 154.404 25.6646C155.598 25.7456 156.5 26.7799 156.419 27.9737Z" fill="#E8CEB9"/>
<path id="Vector_124" d="M152.965 28.9759L154.329 33.6271L156.668 33.0981L155.526 28.1346L152.965 28.9759Z" fill="#E8CEB9"/>
</g>
<g id="Group_78">
<path id="Vector_125" d="M157.043 43.1368C156.957 43.1155 156.872 43.0888 156.788 43.0563C156.203 42.826 155.76 42.3353 155.591 41.7292L152.749 31.5458L156.61 30.4689L158.739 38.0958L165.256 34.1051L167.349 37.5236L158.569 42.9002C158.108 43.1814 157.558 43.2639 157.043 43.1368Z" fill="#6649A6"/>
</g>
</g>
</g>
<g id="Group_79">
<path id="Vector_126" d="M158.316 27.4906C158.316 27.4906 157.648 27.9401 157.911 29.8438L159.044 28.0293L158.316 27.4906Z" fill="#131118"/>
<g id="Group_80">
<g id="Group_81">
<path id="Vector_127" d="M164.944 33.6725L165.591 27.925L161.504 28.7154L161.13 33.4815C161.046 34.5352 161.515 35.1995 162.568 35.2834L162.898 35.311C163.952 35.3949 164.86 34.7262 164.944 33.6725Z" fill="#E8CEB9"/>
</g>
</g>
<path id="Vector_128" d="M160.857 32.2713L160.989 32.3052C162.939 32.8037 164.924 31.6269 165.423 29.6766L166.443 25.6888C166.572 25.184 166.268 24.6701 165.763 24.5406L161.115 23.3516C160.213 23.1208 159.295 23.6649 159.064 24.5668L158.228 27.8359C157.729 29.7867 158.906 31.7723 160.857 32.2713Z" fill="#E8CEB9"/>
<path id="Vector_129" d="M164.789 27.5023L166.465 27.9091L167.113 25.2378C167.292 24.5008 167.315 23.5479 166.204 23.1615L165.324 22.9481L164.789 27.5023Z" fill="#131118"/>
<path id="Vector_130" d="M164.915 28.2282C164.747 28.8862 165.144 29.5558 165.801 29.7241C166.459 29.8923 167.129 29.4952 167.297 28.8377C167.466 28.1797 167.069 27.51 166.411 27.3418C165.753 27.1735 165.083 27.5701 164.915 28.2282Z" fill="#E8CEB9"/>
<path id="Vector_131" d="M165.53 27.4509L165.131 29.0947L164.309 28.8954L164.8 26.8705C164.8 26.8705 163.988 26.4151 164.683 25.3057C165.378 24.1962 163.703 24.074 163.27 24.253C162.836 24.4319 159.955 25.1622 158.752 24.1734C157.548 23.1847 158.269 20.3646 160.418 20.5144C162.88 20.6861 164.081 22.4443 164.081 22.4443L166.205 23.1615L165.53 27.4509Z" fill="#131118"/>
<path id="Vector_132" d="M164.309 28.8949C164.309 28.8949 163.573 28.397 163.15 29.2145C162.726 30.032 162.669 30.3448 162.112 30.1702C162.112 30.1702 161.703 29.053 160.171 28.686C158.64 28.3194 157.871 28.9604 157.871 28.9604C157.871 28.9604 157.581 31.2045 159.694 32.0293C161.808 32.8541 164.884 32.9492 165.13 29.0942L164.309 28.8949Z" fill="#131118"/>
</g>
</g>
</g>
</g>
</g>
</svg>
